#!OML:ASF H:\Terrain\Patient Classification 1\Walking\liu\liu.ASF
:FULLY-SPECIFIED
:DEGREES
78
root 10.0104771102 16.8427696652 2.26055029794 5.54694195199 -2.31763390148 1.93517856489
lowerback -4.89205094082 -2.23237393339 -2.85074092938
upperback -0.423834410581 -2.87893691809 2.25346782647
thorax 2.56234034169 -1.48057775984 3.71880247023
lowerneck -21.7296934556 -3.68417544445 -11.5304715093
upperneck 22.0336993712 -4.33252270499 11.4961948178
head 11.2665373193 -1.53006909675 5.5056943912
rclavicle -1.40578269054e-14 1.27499690974e-14
rhumerus -46.15301892 8.25806022035 -82.9511292264
rradius 42.5676514507
rwrist -23.5835082227
rhand -29.1211401881 -23.1471374132
rfingers 7.12502
rthumb -2.46866570373 -53.1125896632
lclavicle -1.40578269054e-14 1.27499690974e-14
lhumerus -18.4417044906 -14.3755185946 86.5911364288
lradius 24.4527954034
lwrist -0.184802386115
lhand -14.1320242731 -24.3340643287
lfingers 7.12502
lthumb 12.0018654337 5.30190720542
rfemur -29.7644925796 -1.68593431269 18.1588091948
rtibia 60.0813880061
rfoot -20.8481459355 -12.00663066
rtoes -16.4462760148
lfemur -14.6268059007 5.76268421188 -28.4369084828
ltibia 28.8661827388
lfoot -18.346885776 5.89388404252
ltoes 0.0284423101846
79
root 10.0285083188 16.8608227712 2.70191120131 5.84282181633 -0.504154842463 2.54307253676
lowerback -5.20301969007 -2.98504285814 -3.71590513151
upperback -0.355384966493 -3.82765553085 2.28152001962
thorax 2.94940211307 -1.9733565142 4.14016934874
lowerneck -21.6882371037 -3.54463092631 -11.6114403117
upperneck 22.089178021 -4.13453057445 11.5692497086
head 11.2549349695 -1.43988944554 5.58219060413
rclavicle 2.29090414707e-14 2.50207994469e-14
rhumerus -46.299835093 8.3291652148 -82.8948662826
rradius 42.1297804564
rwrist -23.3711861762
rhand -29.0649011439 -24.7642399686
rfingers 7.12502
rthumb -2.41439680068 -54.7303423561
lclavicle 2.29090414707e-14 2.50207994469e-14
lhumerus -15.4331079063 -15.1264915658 86.2021845124
lradius 24.6288893301
lwrist 0.647488631895
lhand -15.2441970098 -24.787725994
lfingers 7.12502
lthumb 10.9291921807 4.90783697428
rfemur -33.1781460861 -1.61946858309 17.4336632471
rtibia 55.4965786909
rfoot -22.1053365754 -11.9129683636
rtoes -15.6655404853
lfemur -12.1010600856 4.59640136452 -29.032908585
ltibia 26.8059876486
lfoot -18.8229936164 5.65442495515
ltoes -1.67349860104
80
root 10.0452388394 16.8717004603 3.19209646438 5.5172520444 0.36971774018 2.70362558299
lowerback -5.36734314452 -3.22789618614 -4.00474575399
upperback 0.00735377793697 -4.12984314672 2.31342885606
thorax 3.47229587109 -2.14662670315 4.28818520202
lowerneck -21.5791969085 -3.67794290936 -11.7903110409
upperneck 21.9317180293 -4.2852799286 11.6558448304
head 11.2031513262 -1.5151697089 5.61478084119
rclavicle -1.61443670893e-14 1.85439823289e-14
rhumerus -46.0300033576 7.52800499667 -82.6109349226
rradius 40.8988523504
rwrist -22.8553230543
rhand -30.0280031902 -23.080596612
rfingers 7.12502
rthumb -3.34453132274 -53.0337062658
lclavicle -1.61443670893e-14 1.85439823289e-14
lhumerus -12.8465543175 -17.0568327695 86.1570072139
lradius 25.3375766056
lwrist 2.2195064583
lhand -15.6524618549 -24.5429282158
lfingers 7.12502
lthumb 10.5354149666 5.17292651075
rfemur -35.1751306557 -0.536966515508 16.8836930001
rtibia 49.9812410057
rfoot -21.3904888083 -12.4670755557
rtoes -21.2552867832
lfemur -8.0077157687 4.67313426263 -29.0076029635
ltibia 23.2657148917
lfoot -19.1669435001 5.23459703118
ltoes -4.680408239
81
root 10.0667447096 16.8663764488 3.69643706385 5.47354071434 1.09614060345 3.28761492091
lowerback -5.67067908465 -3.49270854317 -4.57711218466
upperback -0.0483752688789 -4.42847131006 2.11207049377
thorax 3.64467685679 -2.30522450421 4.35423265361
lowerneck -21.6454313925 -3.84765448696 -11.6565867896
upperneck 22.7134309031 -4.57268050924 11.445599095
head 11.5414622329 -1.66299616689 5.4975720717
rclavicle 7.76402096756e-15 4.86097889691e-15
rhumerus -47.2472071008 8.08006911652 -83.156501164
rradius 40.6066600793
rwrist -23.4625626242
rhand -30.4414893283 -22.7672092137
rfingers 7.12502
rthumb -3.74378598946 -52.7140213783
lclavicle 7.76402096756e-15 4.86097889691e-15
lhumerus -11.5115408525 -20.9613624981 86.1366524499
lradius 26.5867733946
lwrist 6.1977354789
lhand -15.9021118239 -24.382711635
lfingers 7.12502
lthumb 10.2946474652 5.34531846816
rfemur -36.7309721529 0.461806705619 15.5426689987
rtibia 43.6055245603
rfoot -21.5233055559 -11.4238341122
rtoes -23.3839353731
lfemur -3.88907238809 4.87293116867 -29.4164022376
ltibia 19.2939000119
lfoot -19.0038803696 4.5061960749
ltoes -3.74460206322
82
root 10.0710331993 16.8875874293 4.18361715067 5.97156018841 2.95585177535 3.33786655011
lowerback -6.11475896614 -3.91933620949 -4.60064900741
upperback -0.254490042958 -4.9781792145 2.10484775787
thorax 3.74262348129 -2.57601037909 4.28008640512
lowerneck -20.8361366002 -4.01196431495 -12.2884152068
upperneck 22.4280830373 -4.89535479796 12.2890240764
head 11.3652718418 -1.78392828515 5.86676719812
rclavicle -1.9993620104e-14 1.08543451774e-14
rhumerus -48.1236828683 7.71590981139 -83.422448354
rradius 39.9230856929
rwrist -22.9153557841
rhand -30.7358921321 -28.4692957514
rfingers 7.12502
rthumb -4.02811094633 -58.4102758762
lclavicle -1.9993620104e-14 1.08543451774e-14
lhumerus -10.6449601654 -24.973833711 86.6206038024
lradius 28.4673668088
lwrist 10.5732589831
lhand -15.6220812902 -22.4973472691
lfingers 7.12502
lthumb 10.5646915737 7.2171484176
rfemur -38.0337657667 1.54797926763 14.1692882853
rtibia 37.0003605714
rfoot -21.3013759422 -9.61736675315
rtoes -20.8381409683
lfemur -0.396250845839 4.62653090676 -29.0366907548
ltibia 15.1348584784
lfoot -18.0295071447 3.20695366608
ltoes -3.57381853414
83
root 10.0693138445 16.8608216487 4.70550221201 6.5103214728 3.92780345778 4.42455823208
lowerback -7.15853116874 -4.21494326984 -5.86593230783
upperback -0.176697259185 -5.21463592682 1.90951375761
thorax 4.5335341399 -2.73521138665 4.6812377446
lowerneck -21.3490237384 -4.46632354352 -12.161500722
upperneck 22.934335763 -5.38450782241 11.6218577114
head 11.7053292749 -2.06242789835 5.52680127647
rclavicle 1.40065296229e-14 9.8557583729e-15
rhumerus -48.2515650452 7.54574145656 -83.3596501747
rradius 38.5140003784
rwrist -21.9165844983
rhand -30.1112100928 -21.6820774555
rfingers 7.12502
rthumb -3.42489324664 -51.6341718032
lclavicle 1.40065296229e-14 9.8557583729e-15
lhumerus -9.72777540029 -27.9396841935 87.0983752825
lradius 30.636665628
lwrist 14.2273870342
lhand -14.8782931058 -20.9814704402
lfingers 7.12502
lthumb 11.2821533999 8.69513311694
rfemur -39.821344882 4.33770512612 10.7294920416
rtibia 31.7174308534
rfoot -22.4628244719 -9.2027705683
rtoes -21.9650115023
lfemur 5.55756523268 3.92802638961 -29.8298433002
ltibia 6.44314388164
lfoot -15.5012526585 2.6866864389
ltoes 0.135181775621
84
root 10.0444018407 16.8716947919 5.22925364987 6.81036646409 5.67155748689 4.07336503051
lowerback -7.42357559077 -4.58785602596 -5.73313242996
upperback -0.464033948205 -5.71650604326 2.04390585295
thorax 4.4464342782 -2.97295461255 4.67265482667
lowerneck -20.0686569865 -4.44027077929 -12.1970063819
upperneck 22.4612261614 -5.47449664259 11.7143310116
head 11.2936057318 -2.12922358396 5.5300710927
rclavicle -1.74244062928e-14 4.72098762179e-15
rhumerus -48.6214749548 6.40614564605 -83.1265364613
rradius 36.7024078286
rwrist -20.1461829356
rhand -31.1685332261 -27.2628627877
rfingers 7.12502
rthumb -4.44582649455 -57.1954747304
lclavicle -1.74244062928e-14 4.72098762179e-15
lhumerus -10.3525691376 -31.8990483181 87.8852248821
lradius 33.4381063883
lwrist 17.8885377322
lhand -14.3984824469 -20.2651096261
lfingers 7.12502
lthumb 11.7449118286 9.38567654364
rfemur -41.0056174564 10.2489271929 6.89685396902
rtibia 27.5996382449
rfoot -25.1525390825 -12.292798069
rtoes -15.1875275502
lfemur 10.6076736632 3.19754721876 -28.8022904314
ltibia 0.0192383330567
lfoot -13.4396262804 2.71178183271
ltoes -3.53476451352
